<svg width="110" height="28" viewBox="0 0 110 28" fill="none" xmlns="http://www.w3.org/2000/svg">
<path d="M14.7019 12.3919C14.5214 12.3323 14.3305 12.3109 14.1414 12.329C13.9522 12.347 13.7688 12.4041 13.6029 12.4967L1.41597 19.5452C1.40839 19.5452 1.40839 19.5527 1.40144 19.5527C0.784392 19.9285 0.588602 20.6346 0.911971 21.3035C1.31871 22.1302 2.74797 22.9115 4.47091 23.2494C5.0046 23.3548 5.64439 23.43 6.37386 23.43C7.74312 23.43 9.4288 23.1597 11.3021 22.2881C12.7541 21.6117 14.1309 20.1388 14.9886 18.3426C15.8917 16.4492 16.0717 14.5481 15.4774 13.1132C15.4077 12.9443 15.3024 12.7924 15.1687 12.6679C15.0349 12.5435 14.8759 12.4493 14.7025 12.3919H14.7019ZM33.6006 19.5603C33.593 19.5603 33.593 19.5527 33.5854 19.5527L21.3978 12.5043C21.2334 12.4078 21.0498 12.3485 20.86 12.3303C20.6701 12.3122 20.4787 12.3358 20.2989 12.3995C19.9452 12.5195 19.6597 12.7822 19.5246 13.1207C18.9296 14.5557 19.1103 16.4643 20.0134 18.3502C20.8711 20.1464 22.2479 21.6193 23.6999 22.295C25.5656 23.1666 27.2507 23.4376 28.6275 23.4376C29.357 23.4376 29.9968 23.3618 30.5311 23.2569C32.254 22.9266 33.6827 22.1454 34.0894 21.311C34.4128 20.6422 34.2176 19.9431 33.6006 19.5603Z" fill="#7CE0D6"/>
<path d="M16.3277 6.38821C16.1722 6.38821 16.0229 6.3265 15.9128 6.21662C15.8027 6.10674 15.7407 5.95766 15.7403 5.8021C15.7392 5.10453 15.4614 4.43591 14.9679 3.94289C14.4744 3.44987 13.8055 3.17271 13.1079 3.17221C12.9524 3.17221 12.8032 3.1105 12.693 3.00062C12.5829 2.89074 12.5209 2.74167 12.5206 2.5861C12.5209 2.43054 12.5829 2.28147 12.693 2.17159C12.8032 2.06171 12.9524 2 13.1079 2C15.2067 2 16.9069 3.70526 16.9069 5.79452C16.909 5.87184 16.8956 5.94879 16.8674 6.02082C16.8392 6.09285 16.7969 6.15849 16.7429 6.21385C16.6888 6.26922 16.6243 6.31318 16.553 6.34313C16.4817 6.37307 16.4051 6.3884 16.3277 6.38821V6.38821ZM18.7505 6.38884C18.5949 6.38884 18.4457 6.32713 18.3356 6.21725C18.2254 6.10737 18.1634 5.95829 18.1631 5.80273C18.1631 3.71347 19.8715 2.00758 21.9702 2.00758C22.1258 2.00758 22.275 2.06929 22.3851 2.17917C22.4952 2.28905 22.5573 2.43812 22.5576 2.59368C22.5573 2.74924 22.4952 2.89832 22.3851 3.0082C22.275 3.11808 22.1258 3.17979 21.9702 3.17979C20.5182 3.17979 19.3366 4.35958 19.3366 5.80968C19.3336 5.96356 19.2707 6.1102 19.1612 6.21837C19.0517 6.32655 18.9044 6.38771 18.7505 6.38884V6.38884ZM23.2492 22.4006H10.6555L16.3801 25.6993C16.7229 25.8981 17.1125 26.0019 17.5088 26C17.9003 26 18.2919 25.9027 18.6374 25.6993L24.3627 22.4006H23.2492ZM25.017 15.1198H9.40625V18.8991H25.6043V15.1198H25.017V15.1198Z" fill="#2C3437"/>
<path d="M24.4735 11.6935L24.3302 11.6107H10.6754L10.5327 11.6928C10.1911 11.8906 9.90722 12.1743 9.70922 12.5158C9.51123 12.8573 9.40603 13.2446 9.40406 13.6393V15.1198H25.6167V13.6393C25.6076 13.2445 25.4978 12.8585 25.2978 12.518C25.0977 12.1774 24.814 11.8936 24.4735 11.6935V11.6935ZM25.0148 18.8991H9.39648V20.3871C9.39648 21.1835 9.82596 21.9345 10.5251 22.333L10.6451 22.4006H24.3453L24.4735 22.3254C24.8133 22.1266 25.0955 21.8426 25.2921 21.5015C25.4886 21.1604 25.5929 20.7739 25.5946 20.3802V18.8916H25.0148V18.8991V18.8991Z" fill="#FFDD0F"/>
<path d="M18.628 8.32719C18.2866 8.12786 17.8984 8.02283 17.5031 8.02283C17.1079 8.02283 16.7197 8.12786 16.3783 8.32719L10.6758 11.6183H24.3381L18.628 8.32719Z" fill="#2C3437"/>
<path d="M43.9241 9.824C44.3881 9.632 44.8681 9.416 45.3641 9.176C45.8761 8.92 46.3721 8.648 46.8521 8.36C47.3321 8.056 47.7881 7.744 48.2201 7.424C48.6681 7.088 49.0681 6.736 49.4201 6.368H51.9161V23H48.3401V11.024C47.8601 11.344 47.3241 11.64 46.7321 11.912C46.1401 12.168 45.5641 12.392 45.0041 12.584L43.9241 9.824ZM59.0048 23V4.952L62.5808 4.376V10.424C62.8208 10.344 63.1248 10.272 63.4928 10.208C63.8768 10.128 64.2448 10.088 64.5968 10.088C65.6208 10.088 66.4688 10.232 67.1408 10.52C67.8288 10.792 68.3728 11.184 68.7728 11.696C69.1888 12.208 69.4768 12.816 69.6368 13.52C69.8128 14.224 69.9008 15.008 69.9008 15.872V23H66.3248V16.304C66.3248 15.152 66.1728 14.336 65.8688 13.856C65.5808 13.376 65.0368 13.136 64.2368 13.136C63.9168 13.136 63.6128 13.168 63.3248 13.232C63.0528 13.28 62.8048 13.336 62.5808 13.4V23H59.0048ZM78.1536 23H74.5776V10.376H78.1536V23ZM78.4896 6.728C78.4896 7.384 78.2736 7.904 77.8416 8.288C77.4256 8.656 76.9296 8.84 76.3536 8.84C75.7776 8.84 75.2736 8.656 74.8416 8.288C74.4256 7.904 74.2176 7.384 74.2176 6.728C74.2176 6.072 74.4256 5.56 74.8416 5.192C75.2736 4.808 75.7776 4.616 76.3536 4.616C76.9296 4.616 77.4256 4.808 77.8416 5.192C78.2736 5.56 78.4896 6.072 78.4896 6.728ZM86.0121 23C85.1961 21.4 84.3641 19.528 83.5161 17.384C82.6841 15.24 81.8921 12.904 81.1401 10.376H84.9321C85.0921 11 85.2761 11.68 85.4841 12.416C85.7081 13.136 85.9321 13.872 86.1561 14.624C86.3961 15.36 86.6281 16.08 86.8521 16.784C87.0921 17.488 87.3241 18.128 87.5481 18.704C87.7561 18.128 87.9801 17.488 88.2201 16.784C88.4601 16.08 88.6921 15.36 88.9161 14.624C89.1561 13.872 89.3801 13.136 89.5881 12.416C89.8121 11.68 90.0041 11 90.1641 10.376H93.8601C93.1081 12.904 92.3081 15.24 91.4601 17.384C90.6281 19.528 89.8041 21.4 88.9881 23H86.0121ZM96.2873 16.784C96.2873 15.664 96.4553 14.688 96.7913 13.856C97.1433 13.008 97.5993 12.304 98.1593 11.744C98.7193 11.184 99.3593 10.76 100.079 10.472C100.815 10.184 101.567 10.04 102.335 10.04C104.127 10.04 105.543 10.592 106.583 11.696C107.623 12.784 108.143 14.392 108.143 16.52C108.143 16.728 108.135 16.96 108.119 17.216C108.103 17.456 108.087 17.672 108.071 17.864H99.9593C100.039 18.6 100.383 19.184 100.991 19.616C101.599 20.048 102.415 20.264 103.439 20.264C104.095 20.264 104.735 20.208 105.359 20.096C105.999 19.968 106.519 19.816 106.919 19.64L107.399 22.544C107.207 22.64 106.951 22.736 106.631 22.832C106.311 22.928 105.951 23.008 105.551 23.072C105.167 23.152 104.751 23.216 104.303 23.264C103.855 23.312 103.407 23.336 102.959 23.336C101.823 23.336 100.831 23.168 99.9833 22.832C99.1513 22.496 98.4553 22.04 97.8953 21.464C97.3513 20.872 96.9433 20.176 96.6713 19.376C96.4153 18.576 96.2873 17.712 96.2873 16.784ZM104.687 15.416C104.671 15.112 104.615 14.816 104.519 14.528C104.439 14.24 104.303 13.984 104.111 13.76C103.935 13.536 103.703 13.352 103.415 13.208C103.143 13.064 102.799 12.992 102.383 12.992C101.983 12.992 101.639 13.064 101.351 13.208C101.063 13.336 100.823 13.512 100.631 13.736C100.439 13.96 100.287 14.224 100.175 14.528C100.079 14.816 100.007 15.112 99.9593 15.416H104.687Z" fill="#2C3437"/>
</svg>
