<svg width="86" height="32" viewBox="0 0 86 32" fill="none" xmlns="http://www.w3.org/2000/svg">
<g clip-path="url(#clip0_83_312)">
<path d="M17.9845 13.4032C17.7518 13.3264 17.5056 13.2987 17.2616 13.322C17.0177 13.3453 16.7812 13.419 16.5671 13.5384L0.848868 22.6292C0.839093 22.6292 0.839093 22.639 0.830132 22.639C0.0342809 23.1237 -0.218241 24.0344 0.198827 24.897C0.723422 25.9633 2.56683 26.9709 4.78903 27.4068C5.47735 27.5428 6.30253 27.6397 7.24338 27.6397C9.0094 27.6397 11.1835 27.2911 13.5996 26.167C15.4723 25.2945 17.2481 23.3949 18.3543 21.0782C19.5192 18.6361 19.7514 16.1842 18.9848 14.3334C18.8949 14.1156 18.7591 13.9198 18.5866 13.7592C18.4141 13.5987 18.209 13.4772 17.9853 13.4032H17.9845ZM42.3594 22.6488C42.3496 22.6488 42.3496 22.639 42.3399 22.639L26.6208 13.5482C26.4086 13.4237 26.1719 13.3472 25.927 13.3238C25.6822 13.3004 25.4352 13.3309 25.2034 13.413C24.7472 13.5677 24.379 13.9066 24.2047 14.3432C23.4374 16.194 23.6703 18.6556 24.8352 21.088C25.9414 23.4047 27.7172 25.3043 29.5899 26.1759C31.9962 27.3 34.1696 27.6495 35.9454 27.6495C36.8862 27.6495 37.7114 27.5518 38.4005 27.4165C40.6227 26.9905 42.4653 25.9829 42.9899 24.9068C43.407 24.0441 43.1553 23.1424 42.3594 22.6488Z" fill="#7CE0D6"/>
<path d="M20.0804 5.65975C19.8797 5.65975 19.6873 5.58016 19.5453 5.43844C19.4033 5.29672 19.3232 5.10445 19.3228 4.90381C19.3213 4.00411 18.963 3.14174 18.3265 2.50587C17.69 1.86999 16.8273 1.51252 15.9276 1.51187C15.727 1.51187 15.5345 1.43228 15.3925 1.29056C15.2505 1.14884 15.1705 0.956573 15.17 0.755937C15.1705 0.5553 15.2505 0.363029 15.3925 0.22131C15.5345 0.0795906 15.727 -4.63953e-07 15.9276 0C18.6345 0 20.8274 2.19938 20.8274 4.89404C20.8301 4.99376 20.8128 5.09301 20.7764 5.18591C20.7401 5.27881 20.6855 5.36347 20.6158 5.43488C20.5462 5.50628 20.4629 5.56298 20.3709 5.60161C20.2789 5.64023 20.1801 5.66001 20.0804 5.65975V5.65975ZM23.2051 5.66057C23.0045 5.66057 22.8121 5.58097 22.67 5.43926C22.528 5.29754 22.448 5.10527 22.4476 4.90463C22.4476 2.20997 24.651 0.00977504 27.3579 0.00977504C27.5585 0.00977458 27.751 0.0893657 27.893 0.231085C28.035 0.372804 28.115 0.565075 28.1155 0.765712C28.115 0.966348 28.035 1.15862 27.893 1.30034C27.751 1.44206 27.5585 1.52165 27.3579 1.52165C25.4852 1.52165 23.9611 3.0433 23.9611 4.91359C23.9573 5.11205 23.8761 5.30119 23.7349 5.44071C23.5937 5.58023 23.4036 5.65912 23.2051 5.66057V5.66057ZM29.0074 26.312H12.7646L20.148 30.5666C20.5901 30.8229 21.0926 30.9568 21.6037 30.9543C22.1087 30.9543 22.6137 30.8289 23.0593 30.5666L30.4436 26.312H29.0074ZM31.2875 16.9214H11.1533V21.7959H32.045V16.9214H31.2875V16.9214Z" fill="#2C3437"/>
<path d="M30.5894 12.5023L30.4045 12.3956H12.7931L12.609 12.5015C12.1684 12.7566 11.8023 13.1226 11.5469 13.563C11.2915 14.0034 11.1559 14.503 11.1533 15.0121V16.9214H32.0638V15.0121C32.0521 14.5028 31.9105 14.005 31.6525 13.5657C31.3944 13.1265 31.0285 12.7605 30.5894 12.5023V12.5023ZM31.2875 21.7959H11.1436V23.7151C11.1436 24.7423 11.6975 25.7108 12.5992 26.2248L12.754 26.312H30.424L30.5894 26.2151C31.0277 25.9586 31.3915 25.5924 31.6451 25.1524C31.8986 24.7124 32.0331 24.2139 32.0353 23.7061V21.7862H31.2875V21.7959V21.7959Z" fill="#FFDD0F"/>
<path d="M23.0494 8.16056C22.6092 7.90348 22.1085 7.76801 21.5987 7.76801C21.0888 7.76801 20.5881 7.90348 20.1479 8.16056L12.793 12.4054H30.4141L23.0494 8.16056Z" fill="#2C3437"/>
<path d="M44.0488 12.8262C44.3787 12.6983 44.716 12.5468 45.076 12.3733C45.4361 12.1998 45.7815 12.0181 46.1187 11.8145C46.4559 11.6108 46.7858 11.399 47.0921 11.1726C47.393 10.9577 47.675 10.7176 47.9352 10.4549H49.6988V21.7085H47.1687V13.6497C46.8315 13.8689 46.4486 14.0733 46.0348 14.2542C45.6128 14.435 45.2064 14.5938 44.8154 14.7226L44.0488 12.8254V12.8262ZM66.788 10.4777C66.788 10.9306 66.6422 11.2858 66.3433 11.5424C66.0443 11.799 65.6997 11.9277 65.2933 11.9277C64.8868 11.9277 64.5422 11.799 64.2424 11.5424C63.9443 11.2858 63.7985 10.9306 63.7985 10.4777C63.7985 10.024 63.9443 9.66885 64.2433 9.41226C64.5344 9.15355 64.912 9.01345 65.3014 9.01963C65.7071 9.01963 66.0525 9.14833 66.3514 9.40493C66.6422 9.66885 66.788 10.024 66.788 10.4769V10.4777ZM66.6039 21.7085H64.0746V13.0225H66.6039V21.7085ZM71.5493 21.7085C70.9742 20.6055 70.3991 19.3217 69.8085 17.8416C69.1801 16.2609 68.6226 14.653 68.1378 13.0225H70.7828C70.8968 13.4534 71.0271 13.9137 71.1811 14.4203C71.3342 14.9189 71.4874 15.4247 71.656 15.9379C71.8173 16.4511 71.9786 16.9504 72.1472 17.4335C72.3085 17.9174 72.469 18.3548 72.6302 18.7556C72.7761 18.3629 72.9292 17.9165 73.0978 17.4335C73.2664 16.9504 73.4351 16.4519 73.5963 15.9379C73.7568 15.4247 73.9181 14.9189 74.0639 14.4203C74.2171 13.9218 74.3474 13.4534 74.4622 13.0225H77.0461C76.5166 14.76 75.9652 16.3688 75.3746 17.8416C74.784 19.3144 74.2097 20.6063 73.6346 21.7085H71.5493V21.7085ZM77.7124 17.418C77.7124 16.6482 77.8355 15.9681 78.0733 15.3946C78.2898 14.8524 78.6131 14.3593 79.0239 13.9446C79.4086 13.5629 79.8678 13.2645 80.3729 13.0681C80.8738 12.8731 81.4067 12.7731 81.9442 12.7732C83.1938 12.7732 84.1909 13.1512 84.9118 13.9063C85.64 14.6615 86.0001 15.7717 86.0001 17.238C86.0001 17.3805 85.9927 17.5394 85.9846 17.7056C85.9773 17.8791 85.9618 18.0306 85.9536 18.1585H80.2808C80.3346 18.6652 80.5798 19.0651 81.0018 19.3673C81.4229 19.6614 81.998 19.8129 82.7116 19.8129C83.171 19.8129 83.6231 19.7754 84.0605 19.6923C84.5053 19.6093 84.8653 19.5107 85.1415 19.3901L85.4787 21.3916C85.3065 21.4738 85.1267 21.5392 84.9419 21.5871C84.697 21.6575 84.4488 21.7157 84.1982 21.7614C83.9229 21.8143 83.6312 21.8518 83.3168 21.8828C83.0024 21.9129 82.6879 21.9349 82.3735 21.9349C81.5768 21.9349 80.8869 21.8217 80.3037 21.5879C79.7139 21.3541 79.2308 21.0364 78.8472 20.6365C78.4581 20.2304 78.1648 19.7425 77.9886 19.2085C77.8015 18.6305 77.7083 18.0263 77.7124 17.4188V17.418ZM83.5848 16.4218C83.5768 16.214 83.5409 16.0083 83.4781 15.81C83.4204 15.616 83.3237 15.4358 83.1938 15.2805C83.059 15.1248 82.8952 14.9967 82.7116 14.9034C82.4835 14.7973 82.2339 14.7457 81.9825 14.7527C81.7072 14.7527 81.462 14.7975 81.2624 14.8961C81.0707 14.9814 80.8992 15.1063 80.7591 15.2626C80.6191 15.4188 80.5135 15.6029 80.4495 15.8027C80.3729 16.0063 80.3273 16.21 80.289 16.4218H83.5848ZM59.3215 10.4549H61.9282V21.7085H59.3215V16.9504H55.0286V21.7085H52.422V10.4549H55.0286V14.76H59.3215V10.4549Z" fill="#2C3437"/>
</g>
<defs>
<clipPath id="clip0_83_312">
<rect width="86" height="30.9543" fill="white"/>
</clipPath>
</defs>
</svg>
